# xmcd
#
# Track frame offsets: 
#        150
#        15179
#        32833
#        47574
#        72764
#        90876
#        105596
#        123595
#        139739
#        156691
#        171617
#        188032
#        209317
#        227599
#
# Disc length: 3206 seconds
#
# Revision: 0
# Processed by: cddbd v1.5.1PL2 Copyright (c) Steve Scherf et al.
# Submitted via: ExactAudioCopy v0.95b3
#
DISCID=b70c840e
DTITLE=Gary Primich - Ridin' The Dark Horse
DYEAR=2006
DGENRE=Blues
TTITLE0=Daddy, Let Me Hitch A Ride
TTITLE1=Sugar Bee
TTITLE2=Why Don't You Write Me
TTITLE3=Pray For A Cloudy Day
TTITLE4=Wig City
TTITLE5=Hillbilly Blues
TTITLE6=Keep On Talking
TTITLE7=She Walks Right In
TTITLE8=Never Know Whan A Woman
TTITLE9=Don't Tear My Clothes
TTITLE10=Kansas City
TTITLE11=You Got Me
TTITLE12=Country Boy
TTITLE13=Indiana
EXTD=
EXTT0=
EXTT1=
EXTT2=
EXTT3=
EXTT4=
EXTT5=
EXTT6=
EXTT7=
EXTT8=
EXTT9=
EXTT10=
EXTT11=
EXTT12=
EXTT13=
PLAYORDER=
